<?xml version="1.0" encoding="UTF-8" standalone="no"?>
<!-- Generator: Adobe Illustrator 13.0.2, SVG Export Plug-In . SVG Version: 6.00 Build 14948)  -->

<svg
   xmlns:dc="http://purl.org/dc/elements/1.1/"
   xmlns:cc="http://creativecommons.org/ns#"
   xmlns:rdf="http://www.w3.org/1999/02/22-rdf-syntax-ns#"
   xmlns:svg="http://www.w3.org/2000/svg"
   xmlns="http://www.w3.org/2000/svg"
   xmlns:sodipodi="http://sodipodi.sourceforge.net/DTD/sodipodi-0.dtd"
   xmlns:inkscape="http://www.inkscape.org/namespaces/inkscape"
   version="1.0"
   id="Layer_1"
   x="0px"
   y="0px"
   width="72"
   height="72"
   viewBox="5.5 -3.5 72 72"
   enable-background="new 5.5 -3.5 64 64"
   xml:space="preserve"
   inkscape:version="0.48.1 r9760"
   sodipodi:docname="touch-icon.svg"
   inkscape:export-filename="/home/christopher/Dropbox/Public/creativecommons/icons/apple-touch-icon-114x114-precomposed.png"
   inkscape:export-xdpi="142.5"
   inkscape:export-ydpi="142.5"><metadata
   id="metadata13"><rdf:RDF><cc:Work
       rdf:about=""><dc:format>image/svg+xml</dc:format><dc:type
         rdf:resource="http://purl.org/dc/dcmitype/StillImage" /><dc:title></dc:title></cc:Work></rdf:RDF></metadata><defs
   id="defs11">
	
	
</defs><sodipodi:namedview
   pagecolor="#98c807"
   bordercolor="#666666"
   borderopacity="1"
   objecttolerance="10"
   gridtolerance="10"
   guidetolerance="10"
   inkscape:pageopacity="0"
   inkscape:pageshadow="2"
   inkscape:window-width="1920"
   inkscape:window-height="1055"
   id="namedview9"
   showgrid="false"
   inkscape:zoom="3.0714951"
   inkscape:cx="57.665268"
   inkscape:cy="79.387238"
   inkscape:window-x="0"
   inkscape:window-y="1"
   inkscape:window-maximized="1"
   inkscape:current-layer="Layer_1" />
<rect
   style="fill:#98c807;fill-opacity:1;fill-rule:evenodd;stroke:none"
   id="rect2982"
   width="72"
   height="72"
   x="5.5"
   y="-3.5" /><path
   inkscape:connector-curvature="0"
   id="path7"
   d="m 41.4415,0.5 c 8.95114,0 16.572259,3.125049 22.857354,9.3721472 3.008052,3.0090468 5.295085,6.4481008 6.857114,10.3141608 C 72.716986,24.053368 73.5,28.157433 73.5,32.5005 c 0,4.381068 -0.773011,8.486132 -2.314035,12.313192 -1.543027,3.82806 -3.820058,7.210113 -6.828109,10.143159 C 61.234813,58.0419 57.691754,60.40494 53.728691,62.042959 49.767629,63.680992 45.671565,64.5 41.443499,64.5 37.215434,64.5 33.16737,63.691987 29.300309,62.070961 25.434248,60.45294 21.967196,58.1099 18.900147,55.043852 15.833099,51.977804 13.500063,48.519751 11.900036,44.671691 10.300012,40.823631 9.5,36.767567 9.5,32.5005 9.5,28.271434 10.309012,24.205372 11.928036,20.300309 13.547062,16.395249 15.9001,12.900193 18.985148,9.8141446 25.080243,3.606048 32.565361,0.5 41.4415,0.5 z m 0.116,5.7720915 c -7.314115,0 -13.467213,2.5530394 -18.458288,7.6571175 -2.51504,2.553041 -4.448072,5.419086 -5.800093,8.600135 -1.354019,3.181049 -2.029029,6.505103 -2.029029,9.972156 0,3.429053 0.67501,6.734105 2.029031,9.913156 1.35302,3.183048 3.285051,6.021092 5.800091,8.516132 2.514039,2.496039 5.351082,4.399068 8.515132,5.715089 3.161051,1.31402 6.476101,1.971033 9.943156,1.971033 3.428053,0 6.750104,-0.665013 9.973156,-1.999033 3.21905,-1.335021 6.121095,-3.257052 8.713138,-5.77109 4.990075,-4.876077 7.484116,-10.990172 7.484116,-18.344287 0,-3.543055 -0.648012,-6.895108 -1.943033,-10.057157 -1.293018,-3.16205 -3.180045,-5.980094 -5.654086,-8.458132 C 54.984711,8.8441306 48.795613,6.2720915 41.557501,6.2720915 z m -0.401005,20.9153255 -4.287068,2.229035 c -0.458007,-0.951016 -1.019016,-1.619027 -1.685026,-2.000032 -0.66701,-0.380005 -1.28602,-0.571008 -1.858029,-0.571008 -2.856044,0 -4.286067,1.88503 -4.286067,5.657088 0,1.714027 0.362006,3.084048 1.085018,4.113064 0.72401,1.029016 1.791028,1.544024 3.201049,1.544024 1.867029,0 3.181049,-0.915015 3.944063,-2.743043 l 3.94206,2.000031 c -0.838012,1.563025 -2.000032,2.791044 -3.486053,3.686059 -1.484025,0.896014 -3.12305,1.343019 -4.914078,1.343019 -2.857044,0 -5.16308,-0.875013 -6.915108,-2.629039 -1.752027,-1.752028 -2.628041,-4.190066 -2.628041,-7.313115 0,-3.048048 0.886013,-5.466085 2.657042,-7.257113 1.771027,-1.790028 4.009061,-2.686043 6.715104,-2.686043 3.963062,-0.002 6.800107,1.541025 8.515134,4.627073 z m 18.45729,0 -4.229068,2.229035 C 54.927709,28.465436 54.3647,27.797425 53.698691,27.41642 53.03068,27.036415 52.39167,26.845412 51.784661,26.845412 c -2.857045,0 -4.287068,1.88503 -4.287068,5.657088 0,1.714027 0.363007,3.084048 1.086019,4.113064 0.723011,1.029016 1.789027,1.544024 3.201049,1.544024 1.865031,0 3.18005,-0.915015 3.941063,-2.743043 l 4.000061,2.000031 c -0.875013,1.563025 -2.057034,2.791044 -3.541056,3.686059 -1.486022,0.896014 -3.105049,1.343019 -4.857077,1.343019 -2.896043,0 -5.20908,-0.875013 -6.941107,-2.629039 -1.736028,-1.752028 -2.60204,-4.190066 -2.60204,-7.313115 0,-3.048048 0.885014,-5.466085 2.65804,-7.257113 1.770028,-1.790028 4.008064,-2.686043 6.713106,-2.686043 3.96206,-0.002 6.783105,1.541025 8.458134,4.627073 z"
   style="fill:#ffffff" />
</svg>