<?xml version="1.0" encoding="utf-8"?>
<!-- Generator: Adobe Illustrator 15.0.2, SVG Export Plug-In . SVG Version: 6.00 Build 0)  -->
<!DOCTYPE svg PUBLIC "-//W3C//DTD SVG 1.1//EN" "http://www.w3.org/Graphics/SVG/1.1/DTD/svg11.dtd">
<svg version="1.1" id="Layer_1" xmlns="http://www.w3.org/2000/svg" xmlns:xlink="http://www.w3.org/1999/xlink" x="0px" y="0px"
	 width="54.953px" height="54.953px" viewBox="0 0 54.953 54.953" enable-background="new 0 0 54.953 54.953" xml:space="preserve">
<g>
	<path fill="#FFFFFF" d="M27.476,17.418c2.551,0,3.827-1.276,3.827-3.827c0-2.583-1.276-3.876-3.827-3.876
		c-2.551,0-3.827,1.292-3.827,3.876C23.649,16.142,24.924,17.418,27.476,17.418z"/>
	<path fill="#FFFFFF" d="M46.955,7.949C41.655,2.649,35.146,0,27.427,0C19.838,0,13.395,2.649,8.096,7.949
		C2.699,13.444,0,19.953,0,27.476C0,35,2.699,41.458,8.096,46.856c5.462,5.397,11.905,8.097,19.331,8.097
		c7.556,0,14.114-2.73,19.674-8.195c5.232-5.135,7.852-11.562,7.852-19.281C54.953,19.79,52.285,13.28,46.955,7.949z M43.52,43.226
		c-4.547,4.48-9.878,6.723-15.995,6.723c-6.15,0-11.449-2.225-15.897-6.674c-4.449-4.447-6.672-9.714-6.672-15.798
		c0-6.051,2.24-11.366,6.722-15.946c4.317-4.383,9.6-6.575,15.848-6.575c6.214,0,11.513,2.192,15.896,6.575
		c4.384,4.383,6.576,9.698,6.576,15.946C49.996,33.822,47.837,39.072,43.52,43.226z"/>
	<path fill="#FFFFFF" d="M33.119,18.89H21.833c-0.491,0-0.908,0.172-1.251,0.515c-0.343,0.344-0.515,0.761-0.515,1.251v11.235h3.14
		v13.345h8.537V31.892h3.141V20.656c0-0.491-0.18-0.908-0.54-1.251C33.984,19.062,33.576,18.89,33.119,18.89z"/>
</g>
</svg>
