<?xml version="1.0" encoding="utf-8"?>
<!-- Generator: Adobe Illustrator 15.0.2, SVG Export Plug-In . SVG Version: 6.00 Build 0)  -->
<!DOCTYPE svg PUBLIC "-//W3C//DTD SVG 1.1//EN" "http://www.w3.org/Graphics/SVG/1.1/DTD/svg11.dtd">
<svg version="1.1" id="Layer_1" xmlns="http://www.w3.org/2000/svg" xmlns:xlink="http://www.w3.org/1999/xlink" x="0px" y="0px"
	 width="54.952px" height="54.952px" viewBox="0 0 54.952 54.952" enable-background="new 0 0 54.952 54.952" xml:space="preserve">
<g>
	<path fill="#FFFFFF" d="M36.307,32.333c-1.21,0-2.126-0.442-2.748-1.325c-0.622-0.883-0.932-2.061-0.932-3.532
		c0-3.238,1.227-4.857,3.68-4.857c0.523,0,1.071,0.164,1.644,0.491c0.572,0.327,1.055,0.9,1.448,1.717l3.63-1.914
		c-1.439-2.649-3.86-3.974-7.261-3.974c-2.323,0-4.244,0.769-5.765,2.306c-1.521,1.538-2.281,3.615-2.281,6.231
		c0,2.682,0.744,4.776,2.232,6.28c1.488,1.504,3.475,2.257,5.961,2.257c1.504,0,2.895-0.384,4.17-1.153
		c1.276-0.768,2.289-1.823,3.042-3.165l-3.435-1.717C39.038,31.548,37.91,32.333,36.307,32.333z"/>
	<path fill="#FFFFFF" d="M20.459,32.333c-1.21,0-2.126-0.442-2.748-1.325c-0.622-0.883-0.932-2.061-0.932-3.532
		c0-3.238,1.227-4.857,3.68-4.857c0.491,0,1.022,0.164,1.595,0.491c0.572,0.327,1.055,0.9,1.447,1.717l3.68-1.914
		c-1.472-2.649-3.909-3.974-7.311-3.974c-2.323,0-4.244,0.769-5.765,2.306c-1.521,1.538-2.282,3.615-2.282,6.231
		c0,2.682,0.752,4.776,2.257,6.28c1.504,1.504,3.483,2.257,5.937,2.257c1.537,0,2.944-0.384,4.219-1.153
		c1.276-0.768,2.273-1.823,2.993-3.165l-3.385-1.717C23.19,31.548,22.062,32.333,20.459,32.333z"/>
	<path fill="#FFFFFF" d="M52.94,16.903c-1.342-3.32-3.304-6.272-5.888-8.856C41.655,2.683,35.113,0,27.427,0
		C19.805,0,13.377,2.667,8.145,7.998c-2.649,2.649-4.669,5.651-6.059,9.003C0.694,20.354,0,23.845,0,27.476
		c0,3.664,0.687,7.147,2.061,10.451c1.374,3.304,3.377,6.272,6.01,8.905c2.633,2.633,5.609,4.645,8.93,6.035
		c3.32,1.391,6.795,2.085,10.426,2.085s7.146-0.703,10.549-2.11c3.401-1.406,6.443-3.435,9.125-6.084
		c2.583-2.518,4.539-5.421,5.863-8.708c1.325-3.288,1.987-6.812,1.987-10.573C54.952,23.747,54.281,20.223,52.94,16.903z
		 M43.569,43.226c-2.225,2.159-4.719,3.811-7.482,4.955c-2.765,1.146-5.618,1.717-8.562,1.717c-2.977,0-5.823-0.564-8.537-1.692
		c-2.715-1.128-5.152-2.764-7.311-4.907c-2.159-2.142-3.819-4.579-4.98-7.311c-1.162-2.73-1.742-5.568-1.742-8.512
		c0-2.976,0.58-5.83,1.742-8.562c1.161-2.731,2.821-5.192,4.98-7.384c4.285-4.383,9.567-6.575,15.848-6.575
		c6.214,0,11.53,2.208,15.946,6.624c2.125,2.127,3.745,4.547,4.857,7.262c1.112,2.715,1.668,5.593,1.668,8.635
		C49.996,33.789,47.854,39.039,43.569,43.226z"/>
</g>
</svg>
