<?xml version="1.0" encoding="utf-8"?>
<!-- Generator: Adobe Illustrator 15.0.2, SVG Export Plug-In . SVG Version: 6.00 Build 0)  -->
<!DOCTYPE svg PUBLIC "-//W3C//DTD SVG 1.1//EN" "http://www.w3.org/Graphics/SVG/1.1/DTD/svg11.dtd">
<svg version="1.1" id="Layer_1" xmlns="http://www.w3.org/2000/svg" xmlns:xlink="http://www.w3.org/1999/xlink" x="0px" y="0px"
	 width="55px" height="55px" viewBox="0 0 55 55" enable-background="new 0 0 55 55" xml:space="preserve">
<path fill="#00A7CA" d="M47.014,7.975C41.69,2.657,35.174,0,27.465,0C19.847,0,13.399,2.657,8.122,7.975
	C2.706,13.475,0,19.981,0,27.5c0,7.516,2.706,13.979,8.122,19.386C13.537,52.296,19.984,55,27.465,55
	c7.571,0,14.135-2.729,19.687-8.182c5.231-5.18,7.851-11.619,7.851-19.318C55,19.799,52.338,13.29,47.014,7.975z M43.571,43.244
	c-4.543,4.49-9.89,6.734-16.037,6.734c-6.15,0-11.451-2.223-15.902-6.668C7.181,38.864,4.955,33.595,4.955,27.5
	c0-2.578,0.407-5.016,1.212-7.313l7.287,3.226h-0.525v3.268h2.579c0,0.462-0.046,0.922-0.046,1.381v0.783h-2.533v3.27h2.992
	c0.415,2.439,1.336,4.419,2.578,5.984c2.578,3.407,6.722,5.248,11.233,5.248c2.947,0,5.616-0.873,7.183-1.75l-1.105-5.108
	c-0.967,0.507-3.129,1.196-5.247,1.196c-2.304,0-4.465-0.689-5.939-2.349c-0.69-0.782-1.196-1.842-1.518-3.223h10.009l14.223,6.295
	C46.35,40.152,45.099,41.768,43.571,43.244z M25.686,28.845l-0.061-0.046l0.104,0.046H25.686z M34.249,26.68h0.41v-3.268h-7.795
	l-3.167-1.401c0.273-0.613,0.596-1.161,0.972-1.59c1.428-1.752,3.453-2.487,5.664-2.487c2.024,0,3.912,0.598,5.108,1.104
	l1.289-5.249c-1.658-0.735-4.099-1.38-6.905-1.38c-4.327,0-8.011,1.749-10.635,4.695c-0.583,0.673-1.088,1.428-1.546,2.227
	L8.6,15.329c0.876-1.314,1.907-2.576,3.101-3.78c4.315-4.4,9.591-6.601,15.833-6.601c6.24,0,11.541,2.2,15.901,6.601
	c4.403,4.354,6.606,9.67,6.606,15.951c0,2.068-0.235,4.021-0.699,5.861L34.249,26.68z"/>
</svg>
