<?xml version="1.0" encoding="utf-8"?>
<!-- Generator: Adobe Illustrator 15.0.2, SVG Export Plug-In . SVG Version: 6.00 Build 0)  -->
<!DOCTYPE svg PUBLIC "-//W3C//DTD SVG 1.1//EN" "http://www.w3.org/Graphics/SVG/1.1/DTD/svg11.dtd">
<svg version="1.1" id="Layer_1" xmlns="http://www.w3.org/2000/svg" xmlns:xlink="http://www.w3.org/1999/xlink" x="0px" y="0px"
	 width="54.952px" height="54.952px" viewBox="0 0 54.952 54.952" enable-background="new 0 0 54.952 54.952" xml:space="preserve">
<path fill="#FFFFFF" d="M46.954,7.948C41.655,2.649,35.146,0,27.427,0C19.838,0,13.395,2.649,8.096,7.948
	C2.699,13.443,0,19.953,0,27.476c0,7.491,2.699,13.934,8.096,19.331c5.429,5.43,11.873,8.145,19.331,8.145
	c7.556,0,14.113-2.731,19.674-8.194c5.233-5.135,7.851-11.562,7.851-19.282C54.952,19.756,52.285,13.247,46.954,7.948z
	 M43.52,43.176c-4.481,4.481-9.812,6.722-15.995,6.722c-6.117,0-11.416-2.208-15.897-6.624c-4.449-4.448-6.672-9.715-6.672-15.799
	c0-2.682,0.409-5.151,1.227-7.409l14.032,6.28l4.367,1.914l3.238,1.472l2.649,1.129c0.491,0.425,0.736,0.981,0.736,1.668
	c0,0.981-0.336,1.685-1.006,2.11c-0.671,0.425-1.48,0.638-2.429,0.638c-2.29,0-4.334-0.834-6.133-2.502l-3.778,3.827
	c2.518,2.159,5.299,3.255,8.341,3.287v4.22h3.189v-4.22c1.896-0.163,3.541-0.792,4.931-1.889c1.39-1.096,2.265-2.51,2.625-4.244
	l10.353,4.612C46.381,40.036,45.122,41.639,43.52,43.176z M35.228,27.083l-4.416-1.962l-2.404-1.08l-3.483-1.57
	c-0.164-0.229-0.245-0.458-0.245-0.687c0-0.785,0.335-1.341,1.006-1.668c0.67-0.327,1.43-0.491,2.281-0.491
	c1.603,0,3.172,0.54,4.71,1.619l3.582-3.68c-2.061-1.57-4.351-2.42-6.869-2.551v-4.22H26.2v4.22
	c-1.701,0.098-3.189,0.581-4.465,1.447c-1.276,0.867-2.143,2.02-2.601,3.459l-10.5-4.71c0.948-1.374,1.962-2.601,3.042-3.68
	c4.317-4.416,9.6-6.624,15.848-6.624c6.247,0,11.546,2.208,15.896,6.624c4.383,4.318,6.575,9.633,6.575,15.946
	c0,1.996-0.229,3.958-0.687,5.888L35.228,27.083z"/>
</svg>
