<?xml version="1.0" encoding="utf-8"?>
<!-- Generator: Adobe Illustrator 15.0.2, SVG Export Plug-In . SVG Version: 6.00 Build 0)  -->
<!DOCTYPE svg PUBLIC "-//W3C//DTD SVG 1.1//EN" "http://www.w3.org/Graphics/SVG/1.1/DTD/svg11.dtd">
<svg version="1.1" id="Layer_1" xmlns="http://www.w3.org/2000/svg" xmlns:xlink="http://www.w3.org/1999/xlink" x="0px" y="0px"
	 width="288px" height="288px" viewBox="0 0 288 288" enable-background="new 0 0 288 288" xml:space="preserve">
<g>
	<path fill="#00A7CA" d="M144,0C64.473,0,0,64.473,0,144c0,79.52,64.473,144,144,144c79.527,0,144-64.48,144-144
		C288,64.473,223.527,0,144,0L144,0z M144,261c-64.516,0-117.004-52.492-117.004-117c0-13.504,2.328-26.473,6.559-38.543
		l45.761,20.375c-1.23,6.125-1.902,12.512-1.902,19.109c0,57.487,42.91,73.684,69.906,73.684c15.922,0,29.699-5.137,40.484-12.676
		c2.051-1.471,3.905-2.949,5.612-4.453l-20.992-25.508c-0.614,0.707-1.258,1.375-1.918,1.973
		c-8.164,7.742-17.141,7.742-19.146,7.742c-21.964,0-31.159-23.176-31.28-41.738l126.117,56.152
		c0.147,0.023,0.272,0.023,0.395,0.051C226.695,236.398,188.168,261,144,261L144,261z M256.75,173.896l-130.078-58.062
		c4.695-8.496,12.164-14.887,23.34-14.887c6.48,0,11.621,2.149,15.668,4.86c1.68,1.214,3.141,2.425,4.371,3.652L193.5,85.324
		c-15.75-13.539-33.656-15.957-45.363-15.957c-27.516,0-46.989,11.895-58.465,29.957l-43.5-19.402
		c20.937-31.848,56.961-52.93,97.828-52.93c64.516,0,117.008,52.485,117.008,117.008c0,10.445-1.398,20.555-3.977,30.195
		C256.926,174.09,256.855,174.004,256.75,173.896L256.75,173.896z"/>
</g>
</svg>
