<?xml version="1.0" encoding="utf-8"?>
<!-- Generator: Adobe Illustrator 15.0.2, SVG Export Plug-In . SVG Version: 6.00 Build 0)  -->
<!DOCTYPE svg PUBLIC "-//W3C//DTD SVG 1.1//EN" "http://www.w3.org/Graphics/SVG/1.1/DTD/svg11.dtd">
<svg version="1.1" id="Layer_1" xmlns="http://www.w3.org/2000/svg" xmlns:xlink="http://www.w3.org/1999/xlink" x="0px" y="0px"
	 width="54.953px" height="54.953px" viewBox="0 0 54.953 54.953" enable-background="new 0 0 54.953 54.953" xml:space="preserve">
<g>
	<path fill="#00A7CA" d="M22.128,19.724h-7.556v15.21h3.827v-4.906h2.993c1.21,0,2.257-0.172,3.14-0.515
		c0.883-0.344,1.546-0.785,1.987-1.325s0.752-1.08,0.932-1.619c0.179-0.54,0.27-1.104,0.27-1.693
		C27.721,21.441,25.856,19.724,22.128,19.724z M23.354,26.519c-0.393,0.442-0.981,0.663-1.767,0.663H18.35V22.57h3.14
		c1.635,0,2.454,0.769,2.454,2.306C23.943,25.53,23.747,26.078,23.354,26.519z"/>
	<path fill="#00A7CA" d="M46.979,7.973C41.664,2.658,35.146,0,27.427,0C19.838,0,13.395,2.649,8.096,7.949
		C2.699,13.444,0,19.953,0,27.476C0,35,2.706,41.458,8.12,46.856c5.413,5.397,11.849,8.097,19.307,8.097
		c7.588,0,14.147-2.73,19.674-8.195c5.232-5.166,7.852-11.594,7.852-19.281C54.953,19.789,52.292,13.289,46.979,7.973z
		 M43.52,43.226c-4.515,4.48-9.847,6.723-15.995,6.723c-6.15,0-11.449-2.225-15.897-6.674c-4.449-4.447-6.672-9.714-6.672-15.798
		s2.24-11.399,6.722-15.946c4.317-4.383,9.592-6.575,15.823-6.575s11.538,2.192,15.92,6.575c4.384,4.351,6.576,9.666,6.576,15.946
		C49.996,33.789,47.837,39.039,43.52,43.226z"/>
	<path fill="#00A7CA" d="M34.639,19.724h-5.888v15.21h5.888c2.42,0,4.317-0.621,5.69-1.864c1.375-1.242,2.062-3.156,2.062-5.741
		c0-2.583-0.687-4.497-2.062-5.74C38.957,20.346,37.059,19.724,34.639,19.724z M37.656,30.542c-0.605,0.801-1.578,1.201-2.919,1.201
		h-2.208v-8.832h2.159c1.374,0,2.362,0.401,2.968,1.202c0.605,0.802,0.908,1.873,0.908,3.213
		C38.564,28.669,38.261,29.742,37.656,30.542z"/>
</g>
</svg>
