<?xml version="1.0" encoding="utf-8"?>
<!-- Generator: Adobe Illustrator 15.0.2, SVG Export Plug-In . SVG Version: 6.00 Build 0)  -->
<!DOCTYPE svg PUBLIC "-//W3C//DTD SVG 1.1//EN" "http://www.w3.org/Graphics/SVG/1.1/DTD/svg11.dtd">
<svg version="1.1" id="Layer_1" xmlns="http://www.w3.org/2000/svg" xmlns:xlink="http://www.w3.org/1999/xlink" x="0px" y="0px"
	 width="54.952px" height="54.952px" viewBox="0 0 54.952 54.952" enable-background="new 0 0 54.952 54.952" xml:space="preserve">
<g>
	<path fill="#FFFFFF" d="M22.128,19.724h-7.556v15.21h3.827v-4.906h2.993c1.21,0,2.257-0.172,3.14-0.515
		c0.883-0.344,1.546-0.785,1.987-1.325c0.441-0.54,0.752-1.08,0.932-1.619c0.179-0.54,0.27-1.104,0.27-1.693
		C27.721,21.441,25.856,19.724,22.128,19.724z M23.354,26.519c-0.393,0.442-0.981,0.663-1.767,0.663H18.35v-4.612h3.14
		c1.635,0,2.454,0.769,2.454,2.306C23.943,25.53,23.747,26.078,23.354,26.519z"/>
	<path fill="#FFFFFF" d="M46.979,7.973C41.663,2.658,35.146,0,27.427,0C19.838,0,13.395,2.649,8.096,7.949
		C2.699,13.444,0,19.953,0,27.476C0,35,2.706,41.459,8.12,46.856c5.413,5.397,11.849,8.096,19.307,8.096
		c7.588,0,14.146-2.73,19.674-8.194c5.233-5.167,7.851-11.595,7.851-19.282S52.293,13.289,46.979,7.973z M43.52,43.226
		c-4.514,4.481-9.846,6.722-15.995,6.722c-6.15,0-11.449-2.224-15.897-6.673c-4.449-4.448-6.672-9.714-6.672-15.798
		s2.24-11.399,6.722-15.946c4.317-4.383,9.592-6.575,15.823-6.575c6.231,0,11.538,2.192,15.921,6.575
		c4.383,4.351,6.575,9.666,6.575,15.946C49.996,33.789,47.837,39.039,43.52,43.226z"/>
	<path fill="#FFFFFF" d="M34.639,19.724h-5.888v15.21h5.888c2.42,0,4.317-0.621,5.691-1.864c1.374-1.243,2.061-3.156,2.061-5.741
		c0-2.583-0.687-4.497-2.061-5.74C38.957,20.346,37.059,19.724,34.639,19.724z M37.656,30.542c-0.605,0.802-1.578,1.202-2.919,1.202
		h-2.208v-8.832h2.159c1.374,0,2.363,0.401,2.968,1.202c0.605,0.802,0.908,1.873,0.908,3.213
		C38.564,28.67,38.261,29.741,37.656,30.542z"/>
</g>
</svg>
