<?xml version="1.0" encoding="utf-8"?>
<!-- Generator: Adobe Illustrator 15.0.2, SVG Export Plug-In . SVG Version: 6.00 Build 0)  -->
<!DOCTYPE svg PUBLIC "-//W3C//DTD SVG 1.1//EN" "http://www.w3.org/Graphics/SVG/1.1/DTD/svg11.dtd">
<svg version="1.1" id="Layer_1" xmlns="http://www.w3.org/2000/svg" xmlns:xlink="http://www.w3.org/1999/xlink" x="0px" y="0px"
	 width="54.952px" height="54.951px" viewBox="0 0 54.952 54.951" enable-background="new 0 0 54.952 54.951" xml:space="preserve">
<g>
	<path fill="#FFFFFF" d="M45.433,27.966l-5.446-2.257v-6.82l-16.829-6.967L15.7,15.209v7.752l0.049,0.049l-6.575,2.748v7.065
		l7.016,3.042l7.114-2.944l0.491,0.196l14.376,5.937l0.343,0.098l0.294-0.098l6.672-2.846l0.491-0.245v-7.752L45.433,27.966z
		 M37.632,36.994l-0.049-0.049v0.049l-12.609-5.201v-5.005l12.609,5.152v0.196h0.049V36.994z M38.466,30.616l-3.974-1.717
		l4.318-1.815l4.072,1.717L38.466,30.616z M44.255,34.835l-4.906,2.109v-4.808l4.906-2.061V34.835z"/>
	<path fill="#FFFFFF" d="M46.954,7.998C41.622,2.666,35.113,0,27.427,0c-7.556,0-14,2.666-19.331,7.998
		C2.699,13.493,0,19.986,0,27.476C0,35,2.699,41.459,8.096,46.856c5.462,5.397,11.905,8.095,19.331,8.095
		c7.588,0,14.146-2.714,19.674-8.145c5.233-5.201,7.851-11.644,7.851-19.331C54.952,19.79,52.285,13.296,46.954,7.998z
		 M43.52,43.225c-4.547,4.482-9.878,6.722-15.995,6.722c-6.15,0-11.449-2.224-15.897-6.672c-4.449-4.416-6.672-9.682-6.672-15.799
		c0-6.051,2.24-11.35,6.722-15.896c4.317-4.416,9.6-6.624,15.848-6.624c6.247,0,11.546,2.208,15.896,6.624
		c4.383,4.317,6.575,9.616,6.575,15.896C49.996,33.789,47.837,39.039,43.52,43.225z"/>
</g>
</svg>
