<?xml version="1.0" encoding="utf-8"?>
<!-- Generator: Adobe Illustrator 15.0.2, SVG Export Plug-In . SVG Version: 6.00 Build 0)  -->
<!DOCTYPE svg PUBLIC "-//W3C//DTD SVG 1.1//EN" "http://www.w3.org/Graphics/SVG/1.1/DTD/svg11.dtd">
<svg version="1.1" id="Layer_1" xmlns="http://www.w3.org/2000/svg" xmlns:xlink="http://www.w3.org/1999/xlink" x="0px" y="0px"
	 width="54.953px" height="54.951px" viewBox="0 0 54.953 54.951" enable-background="new 0 0 54.953 54.951" xml:space="preserve">
<g>
	<path fill="#00A7CA" d="M27.329,13.002c-3.14,0-5.807,0.924-7.998,2.772c-2.192,1.848-3.549,4.457-4.072,7.826H13.1l5.446,5.446
		l5.446-5.446H21.98c0.458-3.238,2.519-4.857,6.182-4.857c2.028,0,3.582,0.761,4.662,2.282c1.078,1.521,1.618,3.737,1.618,6.648
		c0,2.781-0.589,5.004-1.767,6.674c-1.178,1.668-2.731,2.502-4.661,2.502c-3.86,0-5.872-1.668-6.035-5.005h-6.918
		c0.458,3.435,1.815,6.084,4.072,7.948c2.257,1.865,4.938,2.797,8.046,2.797c4.22,0,7.654-1.398,10.304-4.195
		s3.974-6.305,3.974-10.523c0-4.35-1.275-7.916-3.826-10.696C35.082,14.393,31.646,13.002,27.329,13.002z"/>
	<path fill="#00A7CA" d="M46.955,7.998C41.623,2.666,35.113,0,27.427,0c-7.556,0-14,2.666-19.331,7.998
		C2.699,13.493,0,19.986,0,27.476C0,35,2.699,41.459,8.096,46.856c5.462,5.396,11.905,8.095,19.331,8.095
		c7.588,0,14.147-2.714,19.674-8.146c5.232-5.201,7.852-11.644,7.852-19.331C54.953,19.79,52.285,13.296,46.955,7.998z
		 M43.52,43.226c-4.547,4.481-9.878,6.722-15.995,6.722c-6.15,0-11.449-2.224-15.897-6.673c-4.449-4.416-6.672-9.682-6.672-15.798
		c0-6.051,2.24-11.35,6.722-15.896c4.317-4.416,9.6-6.624,15.848-6.624c6.247,0,11.546,2.208,15.896,6.624
		c4.384,4.317,6.576,9.616,6.576,15.896C49.996,33.789,47.837,39.039,43.52,43.226z"/>
</g>
</svg>
