<?xml version="1.0" encoding="utf-8"?>
<!-- Generator: Adobe Illustrator 15.0.2, SVG Export Plug-In . SVG Version: 6.00 Build 0)  -->
<!DOCTYPE svg PUBLIC "-//W3C//DTD SVG 1.1//EN" "http://www.w3.org/Graphics/SVG/1.1/DTD/svg11.dtd">
<svg version="1.1" id="Layer_1" xmlns="http://www.w3.org/2000/svg" xmlns:xlink="http://www.w3.org/1999/xlink" x="0px" y="0px"
	 width="54.952px" height="54.952px" viewBox="0 0 54.952 54.952" enable-background="new 0 0 54.952 54.952" xml:space="preserve">
<g>
	<path fill="#FFFFFF" d="M39.398,27.819c-0.557,0-0.933,0.245-1.128,0.736l-0.589,1.423l-1.276-10.696
		c-0.033-0.294-0.164-0.531-0.393-0.711c-0.229-0.179-0.491-0.27-0.785-0.27c-0.294,0-0.548,0.098-0.761,0.294
		c-0.213,0.196-0.336,0.442-0.368,0.736l-0.638,7.114l-0.638-8.832v-0.196c0-0.327-0.115-0.605-0.343-0.834
		c-0.229-0.229-0.508-0.344-0.834-0.344c-0.327,0-0.605,0.115-0.834,0.344c-0.229,0.229-0.343,0.507-0.343,0.834l-0.54,6.574
		l-0.736-11.873v-0.196c-0.033-0.327-0.171-0.597-0.417-0.81c-0.245-0.212-0.532-0.302-0.858-0.27
		c-0.294,0.033-0.548,0.147-0.761,0.343c-0.213,0.196-0.319,0.442-0.319,0.736v0.196l-0.687,10.843l-0.589-8.93v-0.147
		c-0.033-0.294-0.164-0.54-0.392-0.736c-0.229-0.196-0.491-0.294-0.785-0.294s-0.548,0.098-0.761,0.294
		c-0.213,0.196-0.335,0.441-0.368,0.736v0.147l-0.736,10.254l-0.54-7.654v-0.196c0-0.327-0.115-0.605-0.343-0.834
		c-0.229-0.229-0.507-0.344-0.834-0.344c-0.328,0-0.606,0.115-0.834,0.344c-0.229,0.229-0.343,0.507-0.343,0.834L18.693,27.28
		l-0.343-2.257c-0.098-0.556-0.434-0.875-1.006-0.957c-0.573-0.081-0.974,0.14-1.202,0.663l-1.521,3.091H9.666v2.355h5.691
		c0.523,0,0.883-0.212,1.08-0.638l0.147-0.294l1.227,8.439c0.065,0.294,0.204,0.532,0.417,0.711c0.212,0.18,0.466,0.27,0.761,0.27
		s0.556-0.098,0.785-0.294c0.228-0.196,0.359-0.442,0.392-0.736l0.54-6.28l0.687,9.812v0.147h0.049v0.147
		c0.032,0.294,0.163,0.54,0.393,0.736c0.229,0.196,0.491,0.294,0.785,0.294c0.294,0,0.547-0.098,0.76-0.294
		c0.212-0.196,0.351-0.441,0.417-0.736v-0.147l0.589-9.371l0.638,9.714v0.098c0,0.328,0.114,0.613,0.344,0.859
		c0.228,0.245,0.506,0.368,0.834,0.368c0.327,0,0.605-0.123,0.834-0.368c0.229-0.246,0.343-0.531,0.343-0.859v-0.147l0.638-10.5
		l0.638,9.568v0.147c0.032,0.294,0.163,0.54,0.393,0.736c0.229,0.196,0.491,0.294,0.785,0.294c0.294,0,0.547-0.098,0.761-0.294
		c0.212-0.196,0.351-0.441,0.417-0.736l0.589-7.998l0.687,8.488v0.147c0.032,0.294,0.163,0.54,0.392,0.736
		c0.229,0.196,0.491,0.294,0.785,0.294s0.547-0.098,0.761-0.294c0.212-0.196,0.335-0.441,0.368-0.736l0.834-10.254l0.441,3.533
		c0.032,0.294,0.139,0.54,0.319,0.736c0.179,0.196,0.417,0.312,0.711,0.344c0.621,0.098,1.046-0.147,1.276-0.736l2.011-4.907h5.643
		v-2.355H39.398z"/>
	<path fill="#FFFFFF" d="M46.979,7.973C41.663,2.658,35.146,0,27.427,0C19.838,0,13.395,2.649,8.096,7.949
		C2.699,13.444,0,19.953,0,27.476C0,35,2.706,41.459,8.12,46.856c5.413,5.397,11.849,8.096,19.307,8.096
		c7.588,0,14.146-2.73,19.674-8.194c5.233-5.167,7.851-11.595,7.851-19.282S52.293,13.289,46.979,7.973z M43.52,43.226
		c-4.514,4.481-9.846,6.722-15.995,6.722c-6.15,0-11.449-2.224-15.897-6.673c-4.449-4.448-6.672-9.714-6.672-15.798
		s2.24-11.399,6.722-15.946c4.317-4.383,9.592-6.575,15.823-6.575c6.231,0,11.538,2.192,15.921,6.575
		c4.383,4.351,6.575,9.666,6.575,15.946C49.996,33.789,47.837,39.039,43.52,43.226z"/>
</g>
</svg>
