<?xml version="1.0" encoding="utf-8"?>
<!-- Generator: Adobe Illustrator 15.0.2, SVG Export Plug-In . SVG Version: 6.00 Build 0)  -->
<!DOCTYPE svg PUBLIC "-//W3C//DTD SVG 1.1//EN" "http://www.w3.org/Graphics/SVG/1.1/DTD/svg11.dtd">
<svg version="1.1" id="Layer_1" xmlns="http://www.w3.org/2000/svg" xmlns:xlink="http://www.w3.org/1999/xlink" x="0px" y="0px"
	 width="55px" height="55px" viewBox="0 0 55 55" enable-background="new 0 0 55 55" xml:space="preserve">
<g>
	<path fill="#00A7CA" d="M27.465,0C19.848,0,13.399,2.658,8.122,7.975C2.707,13.475,0,19.983,0,27.5
		c0,7.518,2.707,13.98,8.122,19.387C13.537,52.297,19.985,55,27.465,55c7.572,0,14.135-2.727,19.688-8.18
		C52.383,41.641,55,35.199,55,27.5c0-7.7-2.662-14.208-7.984-19.525C41.691,2.658,35.175,0,27.465,0z M27.534,4.949
		c6.241,0,11.541,2.2,15.901,6.601c4.404,4.354,6.606,9.67,6.606,15.95c0,6.324-2.155,11.574-6.47,15.744
		c-4.545,4.492-9.891,6.738-16.039,6.738c-6.149,0-11.449-2.226-15.9-6.67C7.182,38.867,4.956,33.596,4.956,27.5
		c0-6.096,2.248-11.413,6.746-15.95C16.016,7.149,21.293,4.949,27.534,4.949z"/>
	<path fill="#00A7CA" d="M39.413,27.75c-0.522,0-0.993,0.314-1.19,0.795L37.783,29.6l-1.223-10.294
		c-0.08-0.657-0.643-1.149-1.306-1.137c-0.659,0.013-1.207,0.524-1.26,1.184l-0.472,5.704l-0.578-7.633
		c-0.051-0.67-0.608-1.191-1.281-1.191c-0.676-0.002-1.234,0.517-1.287,1.188l-0.389,4.981L29.331,11.95
		c-0.043-0.679-0.604-1.209-1.287-1.209c-0.682,0.002-1.244,0.531-1.285,1.211l-0.566,9.282l-0.479-7.349
		c-0.043-0.68-0.604-1.206-1.284-1.206c-0.681,0-1.243,0.524-1.287,1.204l-0.587,8.891l-0.459-6.316
		c-0.05-0.67-0.604-1.191-1.276-1.196c-0.672-0.004-1.236,0.508-1.294,1.179l-0.858,9.96l-0.198-1.354
		c-0.084-0.561-0.521-1.002-1.083-1.087c-0.563-0.085-1.112,0.207-1.355,0.721l-1.459,3.069h-4.87v2.576h5.685
		c0.485,0,0.93-0.273,1.149-0.705l1.191,8.109c0.095,0.646,0.661,1.119,1.313,1.1c0.654-0.02,1.189-0.527,1.247-1.176l0.416-4.83
		l0.629,8.686c0.051,0.676,0.614,1.199,1.291,1.195c0.678-0.002,1.237-0.529,1.281-1.203l0.516-7.811l0.529,8.133
		c0.044,0.678,0.608,1.205,1.288,1.203c0.682,0,1.243-0.531,1.285-1.209l0.544-8.924l0.5,7.959c0.041,0.674,0.601,1.203,1.277,1.207
		c0.676,0.006,1.241-0.517,1.293-1.189l0.506-6.5l0.543,7.143c0.049,0.672,0.605,1.189,1.277,1.191
		c0.674,0.004,1.234-0.512,1.289-1.182l0.758-9.199l0.295,2.475c0.068,0.584,0.521,1.043,1.104,1.125
		c0.583,0.08,1.142-0.24,1.365-0.783l1.998-4.813h5.599V27.75H39.413z M30.762,28.329h-2.433v2.433c0,0.459-0.371,0.83-0.828,0.83
		c-0.459,0-0.832-0.371-0.832-0.83v-2.433h-2.432c-0.458,0-0.831-0.371-0.831-0.828c0-0.459,0.373-0.831,0.831-0.831h2.432v-2.433
		c0-0.459,0.373-0.83,0.832-0.83c0.457,0,0.828,0.371,0.828,0.83v2.433h2.433c0.459,0,0.83,0.371,0.83,0.831
		C31.592,27.958,31.221,28.329,30.762,28.329z"/>
</g>
</svg>
