<?xml version="1.0" encoding="utf-8"?>
<!-- Generator: Adobe Illustrator 15.0.2, SVG Export Plug-In . SVG Version: 6.00 Build 0)  -->
<!DOCTYPE svg PUBLIC "-//W3C//DTD SVG 1.1//EN" "http://www.w3.org/Graphics/SVG/1.1/DTD/svg11.dtd">
<svg version="1.1" id="Layer_1" xmlns="http://www.w3.org/2000/svg" xmlns:xlink="http://www.w3.org/1999/xlink" x="0px" y="0px"
	 width="54.952px" height="54.951px" viewBox="0 0 54.952 54.951" enable-background="new 0 0 54.952 54.951" xml:space="preserve">
<g>
	<path fill="#FFFFFF" d="M46.954,7.998C41.622,2.666,35.113,0,27.427,0c-7.556,0-14,2.666-19.331,7.998
		C2.699,13.493,0,19.986,0,27.476C0,35,2.699,41.459,8.096,46.856c5.462,5.397,11.905,8.095,19.331,8.095
		c7.588,0,14.146-2.714,19.674-8.145c5.233-5.201,7.851-11.644,7.851-19.331C54.952,19.79,52.285,13.296,46.954,7.998z
		 M43.52,43.225c-4.547,4.482-9.878,6.722-15.995,6.722c-6.15,0-11.449-2.224-15.897-6.672c-4.449-4.416-6.672-9.682-6.672-15.799
		c0-6.051,2.24-11.35,6.722-15.896c4.317-4.416,9.6-6.624,15.848-6.624c6.247,0,11.546,2.208,15.896,6.624
		c4.383,4.317,6.575,9.616,6.575,15.896C49.996,33.789,47.837,39.039,43.52,43.225z"/>
	<path fill="#FFFFFF" d="M38.711,19.625h-5.986V13.64c0-0.425-0.147-0.785-0.441-1.08c-0.294-0.294-0.655-0.441-1.08-0.441H16.24
		h-0.147c-0.393,0.066-0.72,0.238-0.981,0.515c-0.262,0.278-0.393,0.613-0.393,1.006v20.214c0,0.425,0.147,0.785,0.441,1.08
		c0.294,0.294,0.654,0.441,1.08,0.441h5.986v5.986c0,0.425,0.147,0.785,0.441,1.079s0.654,0.442,1.08,0.442h14.964
		c0.425,0,0.785-0.147,1.079-0.442c0.294-0.294,0.442-0.654,0.442-1.079V21.146c0-0.425-0.147-0.785-0.442-1.08
		C39.497,19.772,39.136,19.625,38.711,19.625z M23.551,19.625c-0.36,0.066-0.671,0.238-0.932,0.515
		c-0.262,0.278-0.393,0.613-0.393,1.006v11.235h-4.514V15.161h12.021v4.465h-5.986H23.551z M37.239,39.84H25.219V22.618h12.021
		V39.84z"/>
</g>
</svg>
