<?xml version="1.0" encoding="utf-8"?>
<!-- Generator: Adobe Illustrator 15.0.2, SVG Export Plug-In . SVG Version: 6.00 Build 0)  -->
<!DOCTYPE svg PUBLIC "-//W3C//DTD SVG 1.1//EN" "http://www.w3.org/Graphics/SVG/1.1/DTD/svg11.dtd">
<svg version="1.1" id="Layer_1" xmlns="http://www.w3.org/2000/svg" xmlns:xlink="http://www.w3.org/1999/xlink" x="0px" y="0px"
	 width="64px" height="64px" viewBox="0 0 64 64" enable-background="new 0 0 64 64" xml:space="preserve">
<g>
	<path fill="#00A7CA" d="M32,13.58c-10.565,0-13.222,9.969-13.222,18.42c0,8.452,2.656,18.42,13.222,18.42
		c10.564,0,13.221-9.968,13.221-18.42C45.221,23.549,42.564,13.58,32,13.58z M26.308,32c0-3.723,0.259-11.474,5.692-11.474
		c0.429,0,0.82,0.066,1.188,0.157c0.761,0.656,1.133,1.561,0.403,2.823l-7.036,12.93C26.339,34.801,26.308,33.195,26.308,32z
		 M32,43.475c-0.429,0-0.822-0.045-1.188-0.136c-0.069-0.021-0.133-0.043-0.201-0.067c-0.111-0.032-0.23-0.068-0.336-0.11
		c-1.21-0.515-1.973-1.446-0.874-3.093l7.865-13.581c0.373,1.984,0.426,4.056,0.426,5.513C37.691,35.723,37.434,43.475,32,43.475z"
		/>
	<path fill="#00A7CA" d="M61.67,19.697c-1.562-3.885-3.848-7.32-6.857-10.33C48.525,3.119,40.885,0,31.933,0
		C23.056,0,15.574,3.09,9.479,9.3c-3.088,3.087-5.443,6.607-7.082,10.532C0.797,23.719,0,27.771,0,32
		c0,4.268,0.797,8.32,2.397,12.168c1.6,3.85,3.921,7.312,6.969,10.396c3.086,3.049,6.55,5.399,10.398,7.037
		C23.649,63.203,27.703,64,31.933,64c4.229,0,8.34-0.826,12.303-2.465c3.962-1.639,7.496-3.994,10.621-7.081
		c3.011-2.933,5.289-6.297,6.812-10.106C63.23,40.5,64,36.383,64,32C64,27.657,63.23,23.546,61.67,19.697z M50.734,50.33
		c-2.592,2.516-5.502,4.447-8.74,5.781c-3.2,1.334-6.498,1.994-9.927,1.994c-3.469,0-6.788-0.653-9.949-1.948
		c-3.163-1.334-6.002-3.238-8.516-5.716c-2.516-2.514-4.455-5.353-5.826-8.516c-1.334-3.199-2.018-6.498-2.018-9.927
		c0-3.467,0.684-6.787,2.018-9.949c1.371-3.2,3.311-6.074,5.826-8.628c4.99-5.104,11.149-7.664,18.465-7.664
		c7.238,0,13.41,2.566,18.554,7.709c2.477,2.477,4.375,5.31,5.67,8.471C57.587,25.101,58.24,28.457,58.24,32
		C58.24,39.354,55.725,45.454,50.734,50.33z"/>
</g>
</svg>
